{"glyphs":{"0":{"ha":1136,"x_min":67,"x_max":1090,"o":"m 1090 485 q 955 138 1090 276 q 613 0 819 0 l 544 0 q 201 138 336 0 q 67 485 67 275 q 200 821 67 693 q 544 949 333 949 l 613 949 q 956 821 822 949 q 1090 485 1090 693 m 925 471 q 837 696 925 608 q 613 783 749 783 l 544 783 q 320 696 408 783 q 232 471 232 608 q 319 250 232 335 q 544 165 407 165 l 613 165 q 837 250 749 165 q 925 471 925 335 z "},"1":{"ha":533,"x_min":51,"x_max":418,"o":"m 418 614 l 418 0 l 254 0 l 254 614 q 99 783 254 783 l 51 783 l 51 949 l 99 949 q 335 859 253 949 q 418 614 418 769 z "},"2":{"ha":1142,"x_min":81,"x_max":1043,"o":"m 1043 688 q 954 493 1043 567 q 747 425 871 425 l 406 425 q 289 397 339 425 q 231 301 231 363 l 231 165 l 1022 165 l 1022 0 l 81 0 l 81 301 q 179 514 81 432 q 406 590 271 590 l 747 590 q 828 615 794 590 q 861 686 861 640 q 828 757 861 731 q 747 783 794 783 l 96 783 l 96 949 l 747 949 q 954 881 871 949 q 1043 688 1043 807 z "},"3":{"ha":1260,"x_min":96,"x_max":1154,"o":"m 1154 276 q 1119 153 1154 211 q 776 1 1024 1 l 96 1 l 96 167 l 801 167 q 922 188 869 167 q 994 275 994 218 q 922 364 994 333 q 801 386 868 386 l 358 386 l 358 551 l 801 551 q 925 576 871 551 q 994 669 994 608 q 925 761 994 729 q 801 785 871 785 l 96 785 l 96 950 l 776 950 q 1119 794 1024 950 q 1154 668 1154 735 q 1054 469 1154 550 q 1154 276 1154 392 z "},"4":{"ha":1175,"x_min":35,"x_max":1088,"o":"m 1088 306 l 947 306 l 947 0 l 782 0 l 782 306 l 546 306 q 192 390 322 306 q 35 703 35 492 l 35 949 l 200 949 l 200 703 q 546 471 200 471 l 782 471 l 782 949 l 947 949 l 947 471 l 1088 471 l 1088 306 z "},"5":{"ha":1125,"x_min":25,"x_max":1074,"o":"m 1074 293 q 976 76 1074 158 q 749 0 886 0 l 25 0 l 25 165 l 749 165 q 865 196 815 165 q 924 297 924 233 q 865 396 924 361 q 749 425 815 425 l 25 425 l 25 949 l 1017 949 l 1017 783 l 186 783 l 186 590 l 749 590 q 976 511 885 590 q 1074 293 1074 428 z "},"6":{"ha":1286,"x_min":67,"x_max":1126,"o":"m 1126 296 q 1064 92 1126 175 q 876 0 993 0 l 544 0 q 202 138 338 0 q 67 485 67 275 q 201 821 67 693 q 544 949 335 949 l 1028 949 l 1028 783 l 544 783 q 365 733 443 783 q 253 589 288 683 l 876 589 q 1064 499 994 589 q 1126 296 1126 417 m 972 293 q 950 386 972 344 q 876 438 924 438 l 233 438 q 332 239 246 313 q 544 165 418 165 l 876 165 q 950 207 925 165 q 972 293 972 242 z "},"7":{"ha":944,"x_min":38,"x_max":892,"o":"m 892 850 q 854 754 892 806 l 301 1 l 75 1 l 658 783 l 38 783 l 38 949 l 754 949 q 846 928 810 949 q 892 850 892 901 z "},"8":{"ha":1267,"x_min":67,"x_max":1164,"o":"m 1164 674 q 1042 469 1164 546 q 1160 272 1160 397 q 1129 160 1160 214 q 776 1 1036 1 l 449 1 q 97 160 189 1 q 67 272 67 213 q 183 469 67 397 q 67 675 67 544 q 96 789 67 735 q 449 950 188 950 l 776 950 q 1132 789 1038 950 q 1164 674 1164 735 m 994 669 q 925 761 994 729 q 801 785 871 785 l 424 785 q 300 761 354 785 q 231 669 231 729 q 300 576 231 608 q 424 551 354 551 l 801 551 q 925 576 871 551 q 994 669 994 608 m 994 275 q 922 364 994 333 q 801 386 868 386 l 424 386 q 301 364 356 386 q 231 275 231 333 q 303 188 231 218 q 424 167 356 167 l 801 167 q 922 188 869 167 q 994 275 994 218 z "},"9":{"ha":1244,"x_min":135,"x_max":1194,"o":"m 1194 465 q 1061 128 1194 256 q 717 1 928 1 l 235 1 l 235 165 l 717 165 q 897 216 819 165 q 1010 360 975 267 l 385 360 q 199 450 268 360 q 135 654 135 533 q 199 858 135 775 q 385 950 268 950 l 717 950 q 1060 812 925 950 q 1194 465 1194 674 m 1029 513 q 931 711 1017 638 q 717 785 844 785 l 385 785 q 311 743 338 785 q 290 657 290 708 q 311 564 290 606 q 385 513 339 513 l 1029 513 z "},"!":{"ha":397,"x_min":99,"x_max":268,"o":"m 264 231 l 99 231 l 99 949 l 264 949 l 264 231 m 268 81 q 244 19 268 43 q 183 -4 219 -4 q 122 19 146 -4 q 99 81 99 43 q 122 140 99 117 q 183 164 146 164 q 244 140 219 164 q 268 81 268 117 z "},"\"":{"ha":524,"x_min":65,"x_max":475,"o":"m 475 999 l 422 708 l 310 708 l 310 999 l 475 999 m 229 999 l 176 708 l 65 708 l 65 999 l 229 999 z "},"#":{"ha":686,"x_min":39,"x_max":647,"o":"m 247 279 l 401 279 l 447 494 l 290 494 l 247 279 m 468 281 l 597 281 l 597 193 l 453 193 l 411 0 l 346 0 l 385 193 l 231 193 l 190 0 l 124 0 l 163 193 l 39 193 l 39 281 l 181 281 l 222 493 l 90 493 l 90 581 l 242 581 l 276 769 l 346 769 l 310 581 l 463 581 l 501 769 l 568 769 l 531 581 l 647 581 l 647 493 l 513 493 l 468 281 z "},"$":{"ha":1257,"x_min":75,"x_max":1143,"o":"m 1143 446 q 1111 338 1143 388 q 818 208 1029 208 l 793 208 l 793 168 l 628 168 l 628 208 l 569 208 l 569 168 l 404 168 l 404 208 l 257 208 l 257 374 l 404 374 l 404 522 l 369 522 q 169 579 253 522 q 75 757 75 644 q 169 933 75 868 q 369 990 253 990 l 404 990 l 404 1043 l 569 1043 l 569 990 l 628 990 l 628 1043 l 793 1043 l 793 990 l 921 990 l 921 825 l 793 825 l 793 688 l 818 688 q 1111 556 1028 688 q 1143 446 1143 504 m 628 688 l 628 825 l 569 825 l 569 688 l 628 688 m 968 447 q 910 508 968 488 q 818 522 868 522 l 793 522 l 793 374 l 818 374 q 910 388 868 374 q 968 447 968 407 m 404 688 l 404 825 l 369 825 q 297 811 329 825 q 256 756 256 792 q 297 701 256 719 q 369 688 329 688 l 404 688 m 628 374 l 628 522 l 569 522 l 569 374 l 628 374 z "},"%":{"ha":535,"x_min":58,"x_max":483,"o":"m 268 918 q 243 824 268 865 q 163 775 214 775 q 83 824 113 775 q 58 918 58 865 q 83 1014 58 972 q 163 1063 113 1063 q 243 1014 214 1063 q 268 918 268 972 m 469 1063 l 147 500 l 74 500 l 397 1063 l 469 1063 m 483 643 q 458 549 483 590 q 379 500 429 500 q 300 549 329 500 q 275 643 275 590 q 300 738 275 697 q 379 788 329 788 q 458 738 429 788 q 483 643 483 697 m 219 918 q 200 952 219 939 q 160 965 181 965 q 124 951 140 965 q 107 919 107 938 q 126 885 107 899 q 167 872 146 872 q 203 886 186 872 q 219 918 219 900 m 436 643 q 416 676 436 663 q 375 689 396 689 q 340 676 357 689 q 322 643 322 663 q 342 610 322 624 q 383 597 363 597 q 419 611 403 597 q 436 643 436 625 z "},"&":{"ha":1028,"x_min":39,"x_max":967,"o":"m 967 1 l 418 1 q 72 160 164 1 q 39 276 39 214 q 140 469 39 392 q 39 668 39 550 q 69 783 39 729 q 418 950 160 950 l 489 950 l 489 785 l 392 785 q 269 761 324 785 q 199 669 199 729 q 269 576 199 608 q 392 551 324 551 l 594 551 l 594 711 l 750 711 l 750 551 l 967 551 l 967 386 l 750 386 l 750 167 l 967 167 l 967 1 m 594 167 l 594 386 l 392 386 q 271 364 325 386 q 199 275 199 333 q 271 188 199 218 q 392 167 325 167 l 594 167 z "},"'":{"ha":374,"x_min":68,"x_max":232,"o":"m 232 999 l 179 708 l 68 708 l 68 999 l 232 999 z "},"(":{"ha":315,"x_min":50,"x_max":242,"o":"m 242 -139 l 229 -139 q 50 186 50 -139 l 50 757 q 76 969 50 896 q 229 1088 117 1088 l 231 1088 l 242 1088 l 242 922 q 140 874 165 922 q 121 757 121 840 l 121 186 q 142 72 121 108 q 242 26 169 26 l 242 -139 z "},")":{"ha":343,"x_min":65,"x_max":256,"o":"m 256 186 q 78 -139 256 -139 l 65 -139 l 65 26 q 165 72 138 26 q 185 186 185 108 l 185 757 q 167 874 185 840 q 65 922 142 922 l 65 1088 l 78 1088 q 231 969 190 1088 q 256 757 256 896 l 256 186 z "},"*":{"ha":657,"x_min":36,"x_max":563,"o":"m 563 469 l 375 449 l 303 274 l 225 446 l 36 460 l 176 588 l 131 772 l 296 678 l 457 778 l 418 592 l 563 469 z "},"+":{"ha":625,"x_min":46,"x_max":535,"o":"m 535 397 l 376 397 l 376 224 l 211 224 l 211 397 l 46 397 l 46 561 l 211 561 l 211 725 l 376 725 l 376 561 l 535 561 l 535 397 z "},",":{"ha":371,"x_min":74,"x_max":238,"o":"m 238 207 l 185 -83 l 74 -83 l 74 207 l 238 207 z "},"-":{"ha":699,"x_min":60,"x_max":575,"o":"m 575 397 l 60 397 l 60 561 l 575 561 l 575 397 z "},".":{"ha":388,"x_min":83,"x_max":253,"o":"m 253 81 q 229 19 253 43 q 168 -4 206 -4 q 108 19 132 -4 q 83 81 83 43 q 108 140 83 117 q 168 164 132 164 q 229 140 206 164 q 253 81 253 117 z "},"/":{"ha":1092,"x_min":64,"x_max":1092,"o":"m 1092 949 l 246 -1 l 64 -1 l 918 949 l 1092 949 z "},":":{"ha":378,"x_min":97,"x_max":267,"o":"m 267 513 q 243 453 267 476 q 182 429 219 429 q 122 453 146 429 q 97 513 97 476 q 122 573 97 550 q 182 596 146 596 q 243 573 219 596 q 267 513 267 550 m 267 81 q 243 19 267 43 q 182 -4 219 -4 q 122 19 146 -4 q 97 81 97 43 q 122 140 97 117 q 182 164 146 164 q 243 140 219 164 q 267 81 267 117 z "},";":{"ha":378,"x_min":96,"x_max":271,"o":"m 271 513 q 247 453 271 476 q 186 429 224 429 q 126 453 150 429 q 101 513 101 476 q 126 573 101 550 q 186 596 150 596 q 247 573 224 596 q 271 513 271 550 m 261 279 l 192 -35 l 96 -35 l 96 279 l 261 279 z "},"<":{"ha":1088,"x_min":39,"x_max":1008,"o":"m 1008 157 l 106 463 q 39 540 39 485 q 106 618 39 596 l 1008 924 l 1008 750 l 389 540 l 1008 331 l 1008 157 z "},"=":{"ha":731,"x_min":100,"x_max":656,"o":"m 656 513 l 100 513 l 100 676 l 656 676 l 656 513 m 656 263 l 100 263 l 100 428 l 656 428 l 656 263 z "},">":{"ha":997,"x_min":19,"x_max":989,"o":"m 989 540 q 922 463 989 485 l 19 154 l 19 331 l 639 540 l 19 750 l 19 924 l 922 618 q 989 540 989 596 z "},"?":{"ha":963,"x_min":53,"x_max":957,"o":"m 957 679 q 849 476 957 551 q 618 413 753 413 l 222 413 l 222 231 l 57 231 l 57 494 q 82 553 57 528 q 139 578 107 578 l 644 578 q 744 600 701 578 q 799 681 799 628 q 744 761 799 733 q 644 783 701 783 l 57 783 l 57 949 l 618 949 q 849 883 753 949 q 957 679 957 808 m 222 81 q 199 19 222 43 q 138 -4 175 -4 q 77 19 101 -4 q 53 81 53 43 q 77 140 53 117 q 138 164 101 164 q 199 140 175 164 q 222 81 222 117 z "},"@":{"ha":1276,"x_min":88,"x_max":1178,"o":"m 1178 406 q 1013 256 1178 300 q 761 228 908 228 l 647 228 q 444 274 522 228 q 349 446 349 329 l 349 514 q 400 618 349 578 q 513 656 447 656 l 696 656 q 860 514 860 656 l 860 392 l 890 392 q 969 406 936 389 q 1010 471 1010 426 l 1010 668 q 914 764 1010 733 q 761 783 849 783 l 504 783 q 351 764 415 783 q 257 668 257 735 l 257 253 q 357 181 257 204 q 504 165 426 165 l 1144 165 l 1144 0 l 504 0 q 250 39 367 0 q 88 203 88 94 l 88 746 q 504 949 88 949 l 761 949 q 1018 913 908 949 q 1178 744 1178 860 l 1178 406 m 696 393 l 696 514 l 513 514 l 513 471 q 647 393 513 393 l 696 393 z "},"A":{"ha":1299,"x_min":32,"x_max":1308,"o":"m 1308 0 l 1096 1 l 936 267 l 486 267 l 586 431 l 838 431 l 672 704 l 244 1 l 32 1 l 547 858 q 601 919 567 892 q 676 951 643 951 q 751 921 713 951 q 806 858 785 894 l 1308 0 z "},"B":{"ha":1238,"x_min":96,"x_max":1154,"o":"m 1154 276 q 1124 161 1154 215 q 776 1 1032 1 l 96 1 l 96 950 l 776 950 q 1117 799 1019 950 q 1154 668 1154 738 q 1054 469 1154 550 q 1154 276 1154 392 m 994 669 q 925 761 994 729 q 801 785 871 785 l 261 785 l 261 167 l 801 167 q 922 188 869 167 q 994 275 994 218 q 922 364 994 333 q 801 386 868 386 l 358 386 l 358 551 l 801 551 q 925 576 871 551 q 994 669 994 608 z "},"C":{"ha":1149,"x_min":67,"x_max":1081,"o":"m 1081 0 l 544 0 q 202 138 338 0 q 67 485 67 275 q 201 821 67 693 q 544 949 335 949 l 1081 949 l 1081 783 l 544 783 q 320 696 408 783 q 232 471 232 608 q 320 250 232 335 q 544 165 408 165 l 1081 165 l 1081 0 z "},"D":{"ha":1183,"x_min":125,"x_max":1138,"o":"m 1138 485 q 1003 138 1138 275 q 660 0 868 0 l 125 0 l 125 949 l 660 949 q 1003 821 869 949 q 1138 485 1138 693 m 972 471 q 884 696 972 608 q 660 783 796 783 l 289 783 l 289 165 l 660 165 q 884 250 796 165 q 972 471 972 335 z "},"E":{"ha":1003,"x_min":89,"x_max":908,"o":"m 865 399 l 324 399 l 324 564 l 865 564 l 865 399 m 908 0 l 89 0 l 89 949 l 908 949 l 908 783 l 254 783 l 254 165 l 908 165 l 908 0 z "},"F":{"ha":965,"x_min":89,"x_max":908,"o":"m 865 399 l 324 399 l 324 564 l 865 564 l 865 399 m 908 783 l 254 783 l 254 0 l 89 0 l 89 949 l 908 949 l 908 783 z "},"G":{"ha":1208,"x_min":67,"x_max":1147,"o":"m 1147 0 l 544 0 q 202 138 338 0 q 67 485 67 275 q 201 821 67 693 q 544 949 335 949 l 1081 949 l 1081 783 l 544 783 q 320 696 408 783 q 232 471 232 608 q 320 250 232 335 q 544 165 408 165 l 982 165 l 982 372 l 532 372 l 532 524 l 1147 524 l 1147 0 z "},"H":{"ha":1132,"x_min":93,"x_max":1056,"o":"m 1056 0 l 890 0 l 890 394 l 333 394 l 333 560 l 890 560 l 890 949 l 1056 949 l 1056 0 m 258 0 l 93 0 l 93 949 l 258 949 l 258 0 z "},"I":{"ha":415,"x_min":115,"x_max":281,"o":"m 281 0 l 115 0 l 115 949 l 281 949 l 281 0 z "},"J":{"ha":1025,"x_min":94,"x_max":936,"o":"m 936 426 q 800 92 936 197 q 440 0 679 0 l 94 0 l 94 165 l 440 165 q 678 214 601 165 q 771 426 771 275 l 771 949 l 936 949 l 936 426 z "},"K":{"ha":1065,"x_min":92,"x_max":1050,"o":"m 1050 0 l 807 0 l 336 393 q 288 469 288 435 q 336 544 288 503 l 807 949 l 1050 949 l 485 465 l 1050 0 m 257 0 l 92 0 l 92 949 l 257 949 l 257 0 z "},"L":{"ha":900,"x_min":47,"x_max":865,"o":"m 865 0 l 47 0 l 47 949 l 213 949 l 213 165 l 865 165 l 865 0 z "},"M":{"ha":1594,"x_min":36,"x_max":1506,"o":"m 1506 -1 l 1319 -1 l 1182 663 l 864 50 q 775 -12 832 -12 q 678 51 711 -12 l 360 663 l 224 -1 l 36 -1 l 249 869 q 285 935 257 907 q 351 963 314 963 q 454 869 406 963 l 771 249 l 1089 869 q 1192 963 1138 963 q 1258 933 1228 963 q 1294 869 1285 907 l 1506 -1 z "},"N":{"ha":1171,"x_min":99,"x_max":1036,"o":"m 1036 82 q 974 -10 1036 -10 q 871 47 928 -10 l 263 658 l 263 0 l 99 0 l 99 867 q 117 924 99 900 q 168 949 135 949 q 263 900 214 949 l 871 290 l 871 949 l 1036 949 l 1036 82 z "},"O":{"ha":1335,"x_min":67,"x_max":1288,"o":"m 1288 485 q 1153 138 1288 275 q 810 0 1018 0 l 544 0 q 202 138 338 0 q 67 485 67 275 q 201 821 67 693 q 544 949 335 949 l 810 949 q 1154 821 1021 949 q 1288 485 1288 693 m 1124 471 q 1035 696 1124 608 q 810 783 947 783 l 544 783 q 320 696 408 783 q 232 471 232 608 q 320 250 232 335 q 544 165 408 165 l 810 165 q 1035 250 947 165 q 1124 471 1124 335 z "},"P":{"ha":1161,"x_min":72,"x_max":1132,"o":"m 1132 607 q 1018 356 1132 451 q 753 267 913 267 l 335 267 l 335 431 l 779 431 q 917 479 861 431 q 972 608 972 528 q 917 736 972 689 q 779 783 861 783 l 238 783 l 238 0 l 72 0 l 72 949 l 753 949 q 1018 858 913 949 q 1132 607 1132 764 z "},"Q":{"ha":1343,"x_min":67,"x_max":1288,"o":"m 1288 0 l 1044 0 l 1007 38 q 810 0 917 0 l 544 0 q 202 138 338 0 q 67 485 67 275 q 201 821 67 693 q 544 949 335 949 l 810 949 q 1154 821 1021 949 q 1288 485 1288 693 q 1151 136 1288 276 l 1288 0 m 1124 471 q 1035 696 1124 608 q 810 783 947 783 l 544 783 q 320 696 408 783 q 232 471 232 608 q 320 250 232 335 q 544 165 408 165 l 681 165 q 874 169 843 165 l 758 286 l 1001 286 l 1036 250 q 1124 471 1124 338 z "},"R":{"ha":1265,"x_min":72,"x_max":1201,"o":"m 1201 0 l 957 0 l 692 267 l 335 267 l 335 431 l 779 431 q 933 471 871 431 q 1004 606 1004 518 q 779 783 1004 783 l 238 783 l 238 0 l 72 0 l 72 949 l 753 949 q 1049 869 936 949 q 1178 604 1178 779 q 1103 399 1178 485 q 914 286 1033 318 l 1201 0 z "},"S":{"ha":1158,"x_min":36,"x_max":1104,"o":"m 1104 293 q 1008 76 1104 158 q 779 0 917 0 l 56 0 l 56 165 l 779 165 q 897 196 847 165 q 954 297 954 233 q 896 396 954 361 q 779 425 847 425 l 332 425 q 125 493 208 425 q 36 688 36 567 q 125 881 36 807 q 332 949 208 949 l 1047 949 l 1047 783 l 332 783 q 251 757 285 783 q 218 686 218 731 q 251 615 218 640 q 332 590 285 590 l 779 590 q 1008 511 917 590 q 1104 293 1104 428 z "},"T":{"ha":968,"x_min":32,"x_max":944,"o":"m 944 783 l 571 783 l 571 0 l 407 0 l 407 783 l 32 783 l 32 949 l 944 949 l 944 783 z "},"U":{"ha":1265,"x_min":106,"x_max":1154,"o":"m 1154 426 q 1017 92 1154 197 q 658 0 896 0 l 601 0 q 243 92 364 0 q 106 426 106 197 l 106 949 l 271 949 l 271 426 q 389 200 271 256 q 658 165 465 165 q 894 214 819 165 q 989 426 989 275 l 989 949 l 1154 949 l 1154 426 z "},"V":{"ha":1281,"x_min":13,"x_max":1289,"o":"m 1289 949 l 747 78 q 644 -15 690 -15 q 543 78 600 -15 l 13 949 l 225 949 l 649 244 l 1076 949 l 1289 949 z "},"W":{"ha":1674,"x_min":26,"x_max":1672,"o":"m 1672 949 l 1183 78 q 1081 -15 1132 -15 q 978 78 1029 -15 l 844 321 l 708 78 q 606 -15 657 -15 q 503 78 554 -15 l 26 949 l 239 949 l 610 258 l 743 507 l 501 949 l 714 949 l 1085 258 l 1460 949 l 1672 949 z "},"X":{"ha":1203,"x_min":29,"x_max":1172,"o":"m 1172 -1 l 935 -1 l 600 344 l 267 -1 l 29 -1 l 490 472 l 29 949 l 258 949 l 600 599 l 942 949 l 1172 949 l 710 472 l 1172 -1 z "},"Y":{"ha":1156,"x_min":7,"x_max":1125,"o":"m 1125 949 l 654 314 l 654 0 l 490 0 l 490 317 l 7 949 l 219 949 l 576 482 l 911 949 l 1125 949 z "},"Z":{"ha":1115,"x_min":46,"x_max":1063,"o":"m 1063 0 l 176 0 q 69 68 69 0 q 121 161 69 111 l 742 783 l 46 783 l 46 949 l 918 949 q 992 931 961 949 q 1028 869 1028 910 q 986 788 1028 828 l 365 165 l 1063 165 l 1063 0 z "},"[":{"ha":692,"x_min":117,"x_max":307,"o":"m 307 -139 l 296 -139 q 117 186 117 -139 l 117 757 q 142 969 117 896 q 296 1088 183 1088 l 294 1088 l 297 1088 l 307 1088 l 307 922 q 206 874 232 922 q 188 757 188 840 l 188 186 q 208 72 188 108 q 307 26 235 26 l 307 -139 z "},"\\":{"ha":1072,"x_min":44,"x_max":1072,"o":"m 1072 -1 l 890 -1 l 44 949 l 218 949 l 1072 -1 z "},"]":{"ha":644,"x_min":65,"x_max":256,"o":"m 256 186 q 78 -139 256 -139 l 65 -139 l 65 26 q 165 72 138 26 q 185 186 185 108 l 185 757 q 167 874 185 840 q 65 922 142 922 l 65 1088 l 78 1088 q 231 969 190 1088 q 256 757 256 896 l 256 186 z "},"^":{"ha":440,"x_min":679,"x_max":1061,"o":"m 1061 1015 l 944 1015 l 868 1069 l 796 1015 l 679 1015 l 781 1101 l 960 1101 l 1061 1015 z "},"_":{"ha":1039,"x_min":4,"x_max":1039,"o":"m 1039 -296 l 4 -296 l 4 -131 l 1039 -131 l 1039 -296 z "},"`":{"ha":707,"x_min":464,"x_max":728,"o":"m 728 1013 l 614 1013 l 464 1103 l 615 1103 l 728 1013 z "},"a":{"ha":1299,"x_min":32,"x_max":1308,"o":"m 1308 0 l 1096 1 l 936 267 l 486 267 l 586 431 l 838 431 l 672 704 l 244 1 l 32 1 l 547 858 q 601 919 567 892 q 676 951 643 951 q 751 921 713 951 q 806 858 785 894 l 1308 0 z "},"b":{"ha":1238,"x_min":96,"x_max":1154,"o":"m 1154 276 q 1124 161 1154 215 q 776 1 1032 1 l 96 1 l 96 950 l 776 950 q 1117 799 1019 950 q 1154 668 1154 738 q 1054 469 1154 550 q 1154 276 1154 392 m 994 669 q 925 761 994 729 q 801 785 871 785 l 261 785 l 261 167 l 801 167 q 922 188 869 167 q 994 275 994 218 q 922 364 994 333 q 801 386 868 386 l 358 386 l 358 551 l 801 551 q 925 576 871 551 q 994 669 994 608 z "},"c":{"ha":1149,"x_min":67,"x_max":1079,"o":"m 1079 0 l 544 0 q 202 138 338 0 q 67 485 67 275 q 201 821 67 693 q 544 949 335 949 l 1079 949 l 1079 783 l 544 783 q 320 696 408 783 q 232 471 232 608 q 320 250 232 335 q 544 165 408 165 l 1079 165 l 1079 0 z "},"d":{"ha":1183,"x_min":125,"x_max":1138,"o":"m 1138 485 q 1002 138 1138 275 q 660 0 867 0 l 125 0 l 125 949 l 660 949 q 1003 821 869 949 q 1138 485 1138 693 m 972 471 q 884 696 972 608 q 660 783 796 783 l 289 783 l 289 165 l 660 165 q 884 250 796 165 q 972 471 972 335 z "},"e":{"ha":1003,"x_min":89,"x_max":908,"o":"m 865 399 l 324 399 l 324 564 l 865 564 l 865 399 m 908 0 l 89 0 l 89 949 l 908 949 l 908 783 l 254 783 l 254 165 l 908 165 l 908 0 z "},"f":{"ha":965,"x_min":89,"x_max":908,"o":"m 865 399 l 324 399 l 324 564 l 865 564 l 865 399 m 908 783 l 254 783 l 254 0 l 89 0 l 89 949 l 908 949 l 908 783 z "},"g":{"ha":1208,"x_min":67,"x_max":1147,"o":"m 1147 0 l 544 0 q 202 138 338 0 q 67 485 67 275 q 201 821 67 693 q 544 949 335 949 l 1079 949 l 1079 783 l 544 783 q 320 696 408 783 q 232 471 232 608 q 320 250 232 335 q 544 165 408 165 l 982 165 l 982 372 l 532 372 l 532 524 l 1147 524 l 1147 0 z "},"h":{"ha":1132,"x_min":93,"x_max":1056,"o":"m 1056 0 l 890 0 l 890 394 l 333 394 l 333 560 l 890 560 l 890 949 l 1056 949 l 1056 0 m 258 0 l 93 0 l 93 949 l 258 949 l 258 0 z "},"i":{"ha":415,"x_min":115,"x_max":281,"o":"m 281 0 l 115 0 l 115 949 l 281 949 l 281 0 z "},"j":{"ha":1025,"x_min":94,"x_max":936,"o":"m 936 426 q 800 92 936 197 q 440 0 679 0 l 94 0 l 94 165 l 440 165 q 678 214 601 165 q 771 426 771 275 l 771 949 l 936 949 l 936 426 z "},"k":{"ha":1065,"x_min":92,"x_max":1050,"o":"m 1050 0 l 807 0 l 336 393 q 288 469 288 435 q 336 544 288 503 l 807 949 l 1050 949 l 485 465 l 1050 0 m 257 0 l 92 0 l 92 949 l 257 949 l 257 0 z "},"l":{"ha":900,"x_min":47,"x_max":865,"o":"m 865 0 l 47 0 l 47 949 l 213 949 l 213 165 l 865 165 l 865 0 z "},"m":{"ha":1594,"x_min":36,"x_max":1506,"o":"m 1506 -1 l 1319 -1 l 1182 663 l 864 50 q 775 -12 832 -12 q 678 51 711 -12 l 360 663 l 224 -1 l 36 -1 l 249 869 q 285 935 257 907 q 351 963 314 963 q 454 869 406 963 l 771 249 l 1089 869 q 1192 963 1138 963 q 1258 933 1228 963 q 1294 869 1285 907 l 1506 -1 z "},"n":{"ha":1171,"x_min":99,"x_max":1036,"o":"m 1036 82 q 974 -10 1036 -10 q 871 47 928 -10 l 263 658 l 263 0 l 99 0 l 99 867 q 117 924 99 900 q 168 949 135 949 q 263 900 214 949 l 871 290 l 871 949 l 1036 949 l 1036 82 z "},"o":{"ha":1335,"x_min":67,"x_max":1288,"o":"m 1288 485 q 1153 138 1288 275 q 810 0 1018 0 l 544 0 q 202 138 338 0 q 67 485 67 275 q 201 821 67 693 q 544 949 335 949 l 810 949 q 1154 821 1021 949 q 1288 485 1288 693 m 1124 471 q 1035 696 1124 608 q 810 783 947 783 l 544 783 q 320 696 408 783 q 232 471 232 608 q 320 250 232 335 q 544 165 408 165 l 810 165 q 1035 250 947 165 q 1124 471 1124 335 z "},"p":{"ha":1161,"x_min":72,"x_max":1132,"o":"m 1132 607 q 1018 356 1132 451 q 753 267 913 267 l 335 267 l 335 431 l 779 431 q 917 479 861 431 q 972 608 972 528 q 917 736 972 689 q 779 783 861 783 l 238 783 l 238 0 l 72 0 l 72 949 l 753 949 q 1018 858 913 949 q 1132 607 1132 764 z "},"q":{"ha":1343,"x_min":67,"x_max":1288,"o":"m 1288 0 l 1044 0 l 1007 38 q 810 0 917 0 l 544 0 q 202 138 338 0 q 67 485 67 275 q 201 821 67 693 q 544 949 335 949 l 810 949 q 1154 821 1021 949 q 1288 485 1288 693 q 1151 136 1288 276 l 1288 0 m 1124 471 q 1035 696 1124 608 q 810 783 947 783 l 544 783 q 320 696 408 783 q 232 471 232 608 q 320 250 232 335 q 544 165 408 165 l 681 165 q 874 169 843 165 l 758 286 l 1001 286 l 1036 250 q 1124 471 1124 338 z "},"r":{"ha":1265,"x_min":72,"x_max":1201,"o":"m 1201 0 l 957 0 l 692 267 l 335 267 l 335 431 l 779 431 q 933 471 871 431 q 1004 606 1004 518 q 779 783 1004 783 l 238 783 l 238 0 l 72 0 l 72 949 l 753 949 q 1049 869 936 949 q 1178 604 1178 779 q 1103 399 1178 485 q 914 286 1033 318 l 1201 0 z "},"s":{"ha":1158,"x_min":36,"x_max":1104,"o":"m 1104 293 q 1008 76 1104 158 q 779 0 917 0 l 56 0 l 56 165 l 779 165 q 897 196 847 165 q 954 297 954 233 q 896 396 954 361 q 779 425 847 425 l 332 425 q 125 493 208 425 q 36 688 36 567 q 125 881 36 807 q 332 949 208 949 l 1047 949 l 1047 783 l 332 783 q 251 757 285 783 q 218 686 218 731 q 251 615 218 640 q 332 590 285 590 l 779 590 q 1008 511 917 590 q 1104 293 1104 428 z "},"t":{"ha":968,"x_min":32,"x_max":944,"o":"m 944 783 l 571 783 l 571 0 l 407 0 l 407 783 l 32 783 l 32 949 l 944 949 l 944 783 z "},"u":{"ha":1265,"x_min":106,"x_max":1154,"o":"m 1154 426 q 1017 92 1154 197 q 658 0 896 0 l 601 0 q 243 92 364 0 q 106 426 106 197 l 106 949 l 271 949 l 271 426 q 389 200 271 256 q 658 165 465 165 q 894 214 819 165 q 989 426 989 275 l 989 949 l 1154 949 l 1154 426 z "},"v":{"ha":1281,"x_min":13,"x_max":1289,"o":"m 1289 949 l 747 78 q 644 -15 690 -15 q 543 78 600 -15 l 13 949 l 225 949 l 649 244 l 1076 949 l 1289 949 z "},"w":{"ha":1674,"x_min":26,"x_max":1672,"o":"m 1672 949 l 1183 78 q 1081 -15 1132 -15 q 978 78 1029 -15 l 844 321 l 708 78 q 606 -15 657 -15 q 503 78 554 -15 l 26 949 l 239 949 l 610 258 l 743 507 l 501 949 l 714 949 l 1085 258 l 1460 949 l 1672 949 z "},"x":{"ha":1224,"x_min":49,"x_max":1192,"o":"m 1192 -1 l 954 -1 l 621 344 l 286 -1 l 49 -1 l 511 472 l 49 949 l 279 949 l 621 599 l 963 949 l 1192 949 l 731 472 l 1192 -1 z "},"y":{"ha":1156,"x_min":7,"x_max":1125,"o":"m 1125 949 l 654 314 l 654 0 l 490 0 l 490 317 l 7 949 l 219 949 l 576 482 l 911 949 l 1125 949 z "},"z":{"ha":1115,"x_min":46,"x_max":1063,"o":"m 1063 0 l 176 0 q 69 68 69 0 q 121 161 69 111 l 742 783 l 46 783 l 46 949 l 918 949 q 992 931 961 949 q 1028 869 1028 910 q 986 788 1028 828 l 365 165 l 1063 165 l 1063 0 z "},"{":{"ha":692,"x_min":117,"x_max":307,"o":"m 307 -139 l 296 -139 q 117 186 117 -139 l 117 757 q 142 969 117 896 q 296 1088 183 1088 l 294 1088 l 297 1088 l 307 1088 l 307 922 q 206 874 232 922 q 188 757 188 840 l 188 186 q 208 72 188 108 q 307 26 235 26 l 307 -139 z "},"|":{"ha":414,"x_min":118,"x_max":279,"o":"m 279 -293 l 118 -293 l 118 1071 l 279 1071 l 279 -293 z "},"}":{"ha":644,"x_min":65,"x_max":256,"o":"m 256 186 q 78 -139 256 -139 l 65 -139 l 65 26 q 165 72 138 26 q 185 186 185 108 l 185 757 q 167 874 185 840 q 65 922 142 922 l 65 1088 l 78 1088 q 231 969 190 1088 q 256 757 256 896 l 256 186 z "},"¡":{"ha":397,"x_min":99,"x_max":268,"o":"m 264 -293 l 99 -293 l 99 425 l 264 425 l 264 -293 m 268 575 q 244 515 268 539 q 183 492 219 492 q 122 515 146 492 q 99 575 99 539 q 122 636 99 613 q 183 660 146 660 q 244 636 219 660 q 268 575 268 613 z "},"¨":{"ha":928,"x_min":475,"x_max":857,"o":"m 857 1053 q 835 1008 857 1025 q 785 992 813 992 q 733 1008 756 992 q 711 1053 711 1025 q 734 1097 711 1079 q 785 1114 757 1114 q 835 1097 813 1114 q 857 1053 857 1079 m 621 1053 q 599 1008 621 1025 q 549 992 576 992 q 498 1008 521 992 q 475 1053 475 1025 q 497 1097 475 1081 q 549 1114 519 1114 q 599 1097 576 1114 q 621 1053 621 1079 z "},"´":{"ha":707,"x_min":486,"x_max":751,"o":"m 751 1103 l 600 1013 l 486 1013 l 600 1103 l 751 1103 z "},"¸":{"ha":714,"x_min":257,"x_max":467,"o":"m 467 -114 q 422 -203 467 -169 q 321 -236 378 -236 q 257 -232 294 -236 l 257 -203 q 290 -206 281 -206 q 347 -184 321 -206 q 372 -131 372 -162 q 314 -81 372 -81 q 300 -82 308 -81 l 375 39 l 415 39 l 382 -15 q 467 -114 467 -35 z "},"¿":{"ha":963,"x_min":24,"x_max":928,"o":"m 24 -18 q 133 185 24 110 q 363 249 228 249 l 760 249 l 760 431 l 924 431 l 924 167 q 899 108 924 133 q 842 83 875 83 l 336 83 q 236 61 279 83 q 182 -19 182 33 q 236 -100 182 -72 q 336 -122 279 -122 l 924 -122 l 924 -287 l 363 -287 q 132 -222 228 -287 q 24 -18 24 -147 m 758 581 q 782 642 758 618 q 843 665 806 665 q 904 642 881 665 q 928 581 928 618 q 903 521 928 544 q 843 497 879 497 q 782 521 806 497 q 758 581 758 544 z "},"À":{"ha":1299,"x_min":32,"x_max":1308,"o":"m 1308 0 l 1096 1 l 936 267 l 486 267 l 586 431 l 838 431 l 672 704 l 244 1 l 32 1 l 547 858 q 601 919 567 892 q 676 951 643 951 q 751 921 713 951 q 806 858 785 894 l 1308 0 m 728 1013 l 614 1013 l 464 1103 l 615 1103 l 728 1013 z "},"Á":{"ha":1299,"x_min":32,"x_max":1308,"o":"m 1308 0 l 1096 1 l 936 267 l 486 267 l 586 431 l 838 431 l 672 704 l 244 1 l 32 1 l 547 858 q 601 919 567 892 q 676 951 643 951 q 751 921 713 951 q 806 858 785 894 l 1308 0 m 863 1103 l 711 1013 l 597 1013 l 711 1103 l 863 1103 z "},"Â":{"ha":1299,"x_min":32,"x_max":1308,"o":"m 1308 0 l 1096 1 l 936 267 l 486 267 l 586 431 l 838 431 l 672 704 l 244 1 l 32 1 l 547 858 q 601 919 567 892 q 676 951 643 951 q 751 921 713 951 q 806 858 785 894 l 1308 0 m 867 1015 l 750 1015 l 674 1069 l 601 1015 l 485 1015 l 585 1101 l 765 1101 l 867 1015 z "},"Ã":{"ha":1299,"x_min":32,"x_max":1308,"o":"m 1308 0 l 1096 1 l 936 267 l 486 267 l 586 431 l 838 431 l 672 704 l 244 1 l 32 1 l 547 858 q 601 919 567 892 q 676 951 643 951 q 751 921 713 951 q 806 858 785 894 l 1308 0 m 853 1104 q 810 1038 853 1060 q 726 1019 775 1019 q 612 1042 683 1019 q 513 1065 540 1065 q 450 1021 468 1065 l 429 1021 q 554 1104 433 1104 q 667 1082 596 1104 q 769 1060 738 1060 q 832 1104 817 1060 l 853 1104 z "},"Ä":{"ha":1299,"x_min":32,"x_max":1308,"o":"m 1308 0 l 1096 1 l 936 267 l 486 267 l 586 431 l 838 431 l 672 704 l 244 1 l 32 1 l 547 858 q 601 919 567 892 q 676 951 643 951 q 751 921 713 951 q 806 858 785 894 l 1308 0 m 857 1053 q 835 1008 857 1025 q 785 992 813 992 q 733 1008 756 992 q 711 1053 711 1025 q 734 1097 711 1079 q 785 1114 757 1114 q 835 1097 813 1114 q 857 1053 857 1079 m 621 1053 q 599 1008 621 1025 q 549 992 576 992 q 498 1008 521 992 q 475 1053 475 1025 q 497 1097 475 1081 q 549 1114 519 1114 q 599 1097 576 1114 q 621 1053 621 1079 z "},"Å":{"ha":1299,"x_min":32,"x_max":1308,"o":"m 1308 0 l 1096 1 l 936 267 l 486 267 l 586 431 l 838 431 l 672 704 l 244 1 l 32 1 l 547 858 q 601 919 567 892 q 676 951 643 951 q 751 921 713 951 q 806 858 785 894 l 1308 0 m 796 1003 q 747 946 796 967 q 667 931 708 931 q 586 947 624 931 q 536 1003 536 967 q 586 1060 536 1040 q 667 1075 624 1075 q 747 1060 708 1075 q 796 1003 796 1039 m 749 1003 q 717 1039 749 1026 q 667 1049 693 1049 q 615 1039 639 1049 q 583 1003 583 1026 q 615 967 583 979 q 667 957 639 957 q 717 967 693 957 q 749 1003 749 981 z "},"Ç":{"ha":1119,"x_min":64,"x_max":1078,"o":"m 1078 0 l 542 0 q 199 138 335 0 q 64 485 64 275 q 198 821 64 693 q 542 949 332 949 l 1078 949 l 1078 783 l 542 783 q 317 696 406 783 q 229 471 229 608 q 317 250 229 335 q 542 165 406 165 l 1078 165 l 1078 0 m 758 -114 q 714 -203 758 -169 q 613 -236 669 -236 q 549 -232 586 -236 l 549 -203 q 582 -206 572 -206 q 638 -184 613 -206 q 664 -131 664 -162 q 606 -81 664 -81 q 592 -82 600 -81 l 667 39 l 707 39 l 674 -15 q 758 -114 758 -35 z "},"È":{"ha":1003,"x_min":89,"x_max":908,"o":"m 865 399 l 324 399 l 324 564 l 865 564 l 865 399 m 908 0 l 89 0 l 89 949 l 908 949 l 908 783 l 254 783 l 254 165 l 908 165 l 908 0 m 646 1013 l 532 1013 l 382 1103 l 533 1103 l 646 1013 z "},"É":{"ha":1003,"x_min":89,"x_max":908,"o":"m 865 399 l 324 399 l 324 564 l 865 564 l 865 399 m 908 0 l 89 0 l 89 949 l 908 949 l 908 783 l 254 783 l 254 165 l 908 165 l 908 0 m 669 1103 l 518 1013 l 404 1013 l 518 1103 l 669 1103 z "},"Ê":{"ha":1003,"x_min":89,"x_max":908,"o":"m 865 399 l 324 399 l 324 564 l 865 564 l 865 399 m 908 0 l 89 0 l 89 949 l 908 949 l 908 783 l 254 783 l 254 165 l 908 165 l 908 0 m 729 1015 l 613 1015 l 536 1069 l 464 1015 l 347 1015 l 447 1101 l 628 1101 l 729 1015 z "},"Ë":{"ha":1003,"x_min":89,"x_max":908,"o":"m 865 399 l 324 399 l 324 564 l 865 564 l 865 399 m 908 0 l 89 0 l 89 949 l 908 949 l 908 783 l 254 783 l 254 165 l 908 165 l 908 0 m 719 1053 q 697 1008 719 1025 q 647 992 675 992 q 596 1008 618 992 q 574 1053 574 1025 q 597 1097 574 1079 q 647 1114 619 1114 q 697 1097 675 1114 q 719 1053 719 1079 m 483 1053 q 461 1008 483 1025 q 411 992 439 992 q 360 1008 383 992 q 338 1053 338 1025 q 360 1097 338 1081 q 411 1114 382 1114 q 461 1097 439 1114 q 483 1053 483 1079 z "},"Ì":{"ha":415,"x_min":7,"x_max":281,"o":"m 281 0 l 115 0 l 115 949 l 281 949 l 281 0 m 271 1013 l 157 1013 l 7 1103 l 158 1103 l 271 1013 z "},"Í":{"ha":415,"x_min":115,"x_max":406,"o":"m 281 0 l 115 0 l 115 949 l 281 949 l 281 0 m 406 1103 l 254 1013 l 140 1013 l 254 1103 l 406 1103 z "},"Î":{"ha":415,"x_min":14,"x_max":396,"o":"m 281 0 l 115 0 l 115 949 l 281 949 l 281 0 m 396 1015 l 279 1015 l 203 1069 l 131 1015 l 14 1015 l 114 1101 l 294 1101 l 396 1015 z "},"Ï":{"ha":415,"x_min":4,"x_max":386,"o":"m 281 0 l 115 0 l 115 949 l 281 949 l 281 0 m 386 1053 q 364 1008 386 1025 q 314 992 342 992 q 263 1008 285 992 q 240 1053 240 1025 q 263 1097 240 1079 q 314 1114 286 1114 q 364 1097 342 1114 q 386 1053 386 1079 m 150 1053 q 128 1008 150 1025 q 78 992 106 992 q 27 1008 50 992 q 4 1053 4 1025 q 26 1097 4 1081 q 78 1114 49 1114 q 128 1097 106 1114 q 150 1053 150 1079 z "},"Ñ":{"ha":1171,"x_min":99,"x_max":1036,"o":"m 1036 82 q 974 -10 1036 -10 q 871 47 928 -10 l 263 658 l 263 0 l 99 0 l 99 867 q 117 924 99 900 q 168 949 135 949 q 263 900 214 949 l 871 290 l 871 949 l 1036 949 l 1036 82 m 799 1104 q 756 1038 799 1060 q 672 1019 721 1019 q 558 1042 629 1019 q 458 1065 486 1065 q 396 1021 414 1065 l 375 1021 q 500 1104 379 1104 q 613 1082 542 1104 q 715 1060 683 1060 q 778 1104 763 1060 l 799 1104 z "},"Ò":{"ha":1335,"x_min":67,"x_max":1288,"o":"m 1288 485 q 1153 138 1288 275 q 810 0 1018 0 l 544 0 q 202 138 338 0 q 67 485 67 275 q 201 821 67 693 q 544 949 335 949 l 810 949 q 1154 821 1021 949 q 1288 485 1288 693 m 1124 471 q 1035 696 1124 608 q 810 783 947 783 l 544 783 q 320 696 408 783 q 232 471 232 608 q 320 250 232 335 q 544 165 408 165 l 810 165 q 1035 250 947 165 q 1124 471 1124 335 m 728 1013 l 614 1013 l 464 1103 l 615 1103 l 728 1013 z "},"Ó":{"ha":1335,"x_min":67,"x_max":1288,"o":"m 1288 485 q 1153 138 1288 275 q 810 0 1018 0 l 544 0 q 202 138 338 0 q 67 485 67 275 q 201 821 67 693 q 544 949 335 949 l 810 949 q 1154 821 1021 949 q 1288 485 1288 693 m 1124 471 q 1035 696 1124 608 q 810 783 947 783 l 544 783 q 320 696 408 783 q 232 471 232 608 q 320 250 232 335 q 544 165 408 165 l 810 165 q 1035 250 947 165 q 1124 471 1124 335 m 821 1103 l 669 1013 l 556 1013 l 669 1103 l 821 1103 z "},"Ô":{"ha":1335,"x_min":67,"x_max":1288,"o":"m 1288 485 q 1153 138 1288 275 q 810 0 1018 0 l 544 0 q 202 138 338 0 q 67 485 67 275 q 201 821 67 693 q 544 949 335 949 l 810 949 q 1154 821 1021 949 q 1288 485 1288 693 m 1124 471 q 1035 696 1124 608 q 810 783 947 783 l 544 783 q 320 696 408 783 q 232 471 232 608 q 320 250 232 335 q 544 165 408 165 l 810 165 q 1035 250 947 165 q 1124 471 1124 335 m 867 1015 l 750 1015 l 674 1069 l 601 1015 l 485 1015 l 585 1101 l 765 1101 l 867 1015 z "},"Õ":{"ha":1335,"x_min":67,"x_max":1288,"o":"m 1288 485 q 1153 138 1288 275 q 810 0 1018 0 l 544 0 q 202 138 338 0 q 67 485 67 275 q 201 821 67 693 q 544 949 335 949 l 810 949 q 1154 821 1021 949 q 1288 485 1288 693 m 1124 471 q 1035 696 1124 608 q 810 783 947 783 l 544 783 q 320 696 408 783 q 232 471 232 608 q 320 250 232 335 q 544 165 408 165 l 810 165 q 1035 250 947 165 q 1124 471 1124 335 m 853 1104 q 810 1038 853 1060 q 726 1019 775 1019 q 612 1042 683 1019 q 513 1065 540 1065 q 450 1021 468 1065 l 429 1021 q 554 1104 433 1104 q 667 1082 596 1104 q 769 1060 738 1060 q 832 1104 817 1060 l 853 1104 z "},"Ö":{"ha":1335,"x_min":67,"x_max":1288,"o":"m 1288 485 q 1153 138 1288 275 q 810 0 1018 0 l 544 0 q 202 138 338 0 q 67 485 67 275 q 201 821 67 693 q 544 949 335 949 l 810 949 q 1154 821 1021 949 q 1288 485 1288 693 m 1124 471 q 1035 696 1124 608 q 810 783 947 783 l 544 783 q 320 696 408 783 q 232 471 232 608 q 320 250 232 335 q 544 165 408 165 l 810 165 q 1035 250 947 165 q 1124 471 1124 335 m 871 1053 q 849 1008 871 1025 q 799 992 826 992 q 747 1008 769 992 q 725 1053 725 1025 q 748 1097 725 1079 q 799 1114 771 1114 q 849 1097 826 1114 q 871 1053 871 1079 m 635 1053 q 613 1008 635 1025 q 563 992 590 992 q 512 1008 535 992 q 489 1053 489 1025 q 511 1097 489 1081 q 563 1114 533 1114 q 613 1097 590 1114 q 635 1053 635 1079 z "},"Ø":{"ha":1335,"x_min":0,"x_max":0,"o":""},"Ù":{"ha":1265,"x_min":106,"x_max":1154,"o":"m 1154 426 q 1017 92 1154 197 q 658 0 896 0 l 601 0 q 243 92 364 0 q 106 426 106 197 l 106 949 l 271 949 l 271 426 q 389 200 271 256 q 658 165 465 165 q 894 214 819 165 q 989 426 989 275 l 989 949 l 1154 949 l 1154 426 m 728 1013 l 614 1013 l 464 1103 l 615 1103 l 728 1013 z "},"Ú":{"ha":1265,"x_min":106,"x_max":1154,"o":"m 1154 426 q 1017 92 1154 197 q 658 0 896 0 l 601 0 q 243 92 364 0 q 106 426 106 197 l 106 949 l 271 949 l 271 426 q 389 200 271 256 q 658 165 465 165 q 894 214 819 165 q 989 426 989 275 l 989 949 l 1154 949 l 1154 426 m 779 1103 l 628 1013 l 514 1013 l 628 1103 l 779 1103 z "},"Û":{"ha":1265,"x_min":106,"x_max":1154,"o":"m 1154 426 q 1017 92 1154 197 q 658 0 896 0 l 601 0 q 243 92 364 0 q 106 426 106 197 l 106 949 l 271 949 l 271 426 q 389 200 271 256 q 658 165 465 165 q 894 214 819 165 q 989 426 989 275 l 989 949 l 1154 949 l 1154 426 m 811 1015 l 694 1015 l 618 1069 l 546 1015 l 429 1015 l 529 1101 l 710 1101 l 811 1015 z "},"Ü":{"ha":1265,"x_min":106,"x_max":1154,"o":"m 1154 426 q 1017 92 1154 197 q 658 0 896 0 l 601 0 q 243 92 364 0 q 106 426 106 197 l 106 949 l 271 949 l 271 426 q 389 200 271 256 q 658 165 465 165 q 894 214 819 165 q 989 426 989 275 l 989 949 l 1154 949 l 1154 426 m 831 1053 q 808 1008 831 1025 q 758 992 786 992 q 707 1008 729 992 q 685 1053 685 1025 q 708 1097 685 1079 q 758 1114 731 1114 q 808 1097 786 1114 q 831 1053 831 1079 m 594 1053 q 572 1008 594 1025 q 522 992 550 992 q 472 1008 494 992 q 449 1053 449 1025 q 471 1097 449 1081 q 522 1114 493 1114 q 572 1097 550 1114 q 594 1053 594 1079 z "},"ß":{"ha":2317,"x_min":36,"x_max":2263,"o":"m 1104 293 q 1008 76 1104 158 q 779 0 917 0 l 56 0 l 56 165 l 779 165 q 897 196 847 165 q 954 297 954 233 q 896 396 954 361 q 779 425 847 425 l 332 425 q 125 493 208 425 q 36 688 36 567 q 125 881 36 807 q 332 949 208 949 l 1047 949 l 1047 783 l 332 783 q 251 757 285 783 q 218 686 218 731 q 251 615 218 640 q 332 590 285 590 l 779 590 q 1008 511 917 590 q 1104 293 1104 428 m 2263 293 q 2167 76 2263 158 q 1938 0 2075 0 l 1214 0 l 1214 165 l 1938 165 q 2056 196 2006 165 q 2113 297 2113 233 q 2054 396 2113 361 q 1938 425 2006 425 l 1490 425 q 1283 493 1367 425 q 1194 688 1194 567 q 1283 881 1194 807 q 1490 949 1367 949 l 2206 949 l 2206 783 l 1490 783 q 1410 757 1443 783 q 1376 686 1376 731 q 1410 615 1376 640 q 1490 590 1443 590 l 1938 590 q 2167 511 2075 590 q 2263 293 2263 428 z "},"à":{"ha":1299,"x_min":32,"x_max":1308,"o":"m 1308 0 l 1096 1 l 936 267 l 486 267 l 586 431 l 838 431 l 672 704 l 244 1 l 32 1 l 547 858 q 601 919 567 892 q 676 951 643 951 q 751 921 713 951 q 806 858 785 894 l 1308 0 m 728 1013 l 614 1013 l 464 1103 l 615 1103 l 728 1013 z "},"á":{"ha":1299,"x_min":32,"x_max":1308,"o":"m 1308 0 l 1096 1 l 936 267 l 486 267 l 586 431 l 838 431 l 672 704 l 244 1 l 32 1 l 547 858 q 601 919 567 892 q 676 951 643 951 q 751 921 713 951 q 806 858 785 894 l 1308 0 m 863 1103 l 711 1013 l 597 1013 l 711 1103 l 863 1103 z "},"â":{"ha":1299,"x_min":32,"x_max":1308,"o":"m 1308 0 l 1096 1 l 936 267 l 486 267 l 586 431 l 838 431 l 672 704 l 244 1 l 32 1 l 547 858 q 601 919 567 892 q 676 951 643 951 q 751 921 713 951 q 806 858 785 894 l 1308 0 m 867 1015 l 750 1015 l 674 1069 l 601 1015 l 485 1015 l 585 1101 l 765 1101 l 867 1015 z "},"ã":{"ha":1299,"x_min":32,"x_max":1308,"o":"m 1308 0 l 1096 1 l 936 267 l 486 267 l 586 431 l 838 431 l 672 704 l 244 1 l 32 1 l 547 858 q 601 919 567 892 q 676 951 643 951 q 751 921 713 951 q 806 858 785 894 l 1308 0 m 853 1104 q 810 1038 853 1060 q 726 1019 775 1019 q 612 1042 683 1019 q 513 1065 540 1065 q 450 1021 468 1065 l 429 1021 q 554 1104 433 1104 q 667 1082 596 1104 q 769 1060 738 1060 q 832 1104 817 1060 l 853 1104 z "},"ä":{"ha":1299,"x_min":32,"x_max":1308,"o":"m 1308 0 l 1096 1 l 936 267 l 486 267 l 586 431 l 838 431 l 672 704 l 244 1 l 32 1 l 547 858 q 601 919 567 892 q 676 951 643 951 q 751 921 713 951 q 806 858 785 894 l 1308 0 m 857 1053 q 835 1008 857 1025 q 785 992 813 992 q 733 1008 756 992 q 711 1053 711 1025 q 734 1097 711 1079 q 785 1114 757 1114 q 835 1097 813 1114 q 857 1053 857 1079 m 621 1053 q 599 1008 621 1025 q 549 992 576 992 q 498 1008 521 992 q 475 1053 475 1025 q 497 1097 475 1081 q 549 1114 519 1114 q 599 1097 576 1114 q 621 1053 621 1079 z "},"å":{"ha":1299,"x_min":32,"x_max":1308,"o":"m 1308 0 l 1096 1 l 936 267 l 486 267 l 586 431 l 838 431 l 672 704 l 244 1 l 32 1 l 547 858 q 601 919 567 892 q 676 951 643 951 q 751 921 713 951 q 806 858 785 894 l 1308 0 m 796 1001 q 747 944 796 965 q 667 929 708 929 q 586 946 624 929 q 536 1001 536 965 q 586 1058 536 1039 q 667 1074 624 1074 q 747 1058 708 1074 q 796 1001 796 1038 m 749 1001 q 717 1038 749 1025 q 667 1047 693 1047 q 615 1038 639 1047 q 583 1001 583 1025 q 615 965 583 978 q 667 956 639 956 q 717 965 693 956 q 749 1001 749 979 z "},"ç":{"ha":792,"x_min":63,"x_max":1076,"o":"m 1076 0 l 540 0 q 198 138 333 0 q 63 485 63 275 q 197 821 63 693 q 540 949 331 949 l 1076 949 l 1076 783 l 540 783 q 316 696 404 783 q 228 471 228 608 q 316 250 228 335 q 540 165 404 165 l 1076 165 l 1076 0 m 758 -114 q 714 -203 758 -169 q 613 -236 669 -236 q 549 -232 586 -236 l 549 -203 q 582 -206 572 -206 q 638 -184 613 -206 q 664 -131 664 -162 q 606 -81 664 -81 q 592 -82 600 -81 l 667 39 l 707 39 l 674 -15 q 758 -114 758 -35 z "},"è":{"ha":1003,"x_min":89,"x_max":908,"o":"m 865 399 l 324 399 l 324 564 l 865 564 l 865 399 m 908 0 l 89 0 l 89 949 l 908 949 l 908 783 l 254 783 l 254 165 l 908 165 l 908 0 m 644 1013 l 531 1013 l 381 1103 l 532 1103 l 644 1013 z "},"é":{"ha":1003,"x_min":89,"x_max":908,"o":"m 865 399 l 324 399 l 324 564 l 865 564 l 865 399 m 908 0 l 89 0 l 89 949 l 908 949 l 908 783 l 254 783 l 254 165 l 908 165 l 908 0 m 668 1103 l 517 1013 l 403 1013 l 517 1103 l 668 1103 z "},"ê":{"ha":1003,"x_min":89,"x_max":908,"o":"m 865 399 l 324 399 l 324 564 l 865 564 l 865 399 m 908 0 l 89 0 l 89 949 l 908 949 l 908 783 l 254 783 l 254 165 l 908 165 l 908 0 m 728 1015 l 611 1015 l 535 1069 l 463 1015 l 346 1015 l 446 1101 l 626 1101 l 728 1015 z "},"ë":{"ha":1003,"x_min":89,"x_max":908,"o":"m 865 399 l 324 399 l 324 564 l 865 564 l 865 399 m 908 0 l 89 0 l 89 949 l 908 949 l 908 783 l 254 783 l 254 165 l 908 165 l 908 0 m 718 1053 q 696 1008 718 1025 q 646 992 674 992 q 594 1008 617 992 q 572 1053 572 1025 q 595 1097 572 1079 q 646 1114 618 1114 q 696 1097 674 1114 q 718 1053 718 1079 m 482 1053 q 460 1008 482 1025 q 410 992 438 992 q 359 1008 382 992 q 336 1053 336 1025 q 358 1097 336 1081 q 410 1114 381 1114 q 460 1097 438 1114 q 482 1053 482 1079 z "},"ì":{"ha":415,"x_min":6,"x_max":281,"o":"m 281 0 l 115 0 l 115 949 l 281 949 l 281 0 m 269 1013 l 156 1013 l 6 1103 l 157 1103 l 269 1013 z "},"í":{"ha":415,"x_min":115,"x_max":404,"o":"m 281 0 l 115 0 l 115 949 l 281 949 l 281 0 m 404 1103 l 253 1013 l 139 1013 l 253 1103 l 404 1103 z "},"î":{"ha":415,"x_min":13,"x_max":394,"o":"m 281 0 l 115 0 l 115 949 l 281 949 l 281 0 m 394 1015 l 278 1015 l 201 1069 l 129 1015 l 13 1015 l 113 1101 l 293 1101 l 394 1015 z "},"ï":{"ha":415,"x_min":3,"x_max":385,"o":"m 281 0 l 115 0 l 115 949 l 281 949 l 281 0 m 385 1053 q 363 1008 385 1025 q 313 992 340 992 q 261 1008 283 992 q 239 1053 239 1025 q 262 1097 239 1079 q 313 1114 285 1114 q 363 1097 340 1114 q 385 1053 385 1079 m 149 1053 q 126 1008 149 1025 q 76 992 104 992 q 26 1008 49 992 q 3 1053 3 1025 q 25 1097 3 1081 q 76 1114 47 1114 q 126 1097 104 1114 q 149 1053 149 1079 z "},"ñ":{"ha":1171,"x_min":99,"x_max":1036,"o":"m 1036 82 q 974 -10 1036 -10 q 871 47 928 -10 l 263 658 l 263 0 l 99 0 l 99 867 q 117 924 99 900 q 168 949 135 949 q 263 900 214 949 l 871 290 l 871 949 l 1036 949 l 1036 82 m 797 1104 q 754 1038 797 1060 q 671 1019 719 1019 q 556 1042 628 1019 q 457 1065 485 1065 q 394 1021 413 1065 l 374 1021 q 499 1104 378 1104 q 611 1082 540 1104 q 714 1060 682 1060 q 776 1104 761 1060 l 797 1104 z "},"ò":{"ha":1335,"x_min":67,"x_max":1288,"o":"m 1288 485 q 1153 138 1288 275 q 810 0 1018 0 l 544 0 q 202 138 338 0 q 67 485 67 275 q 201 821 67 693 q 544 949 335 949 l 810 949 q 1154 821 1021 949 q 1288 485 1288 693 m 1124 471 q 1035 696 1124 608 q 810 783 947 783 l 544 783 q 320 696 408 783 q 232 471 232 608 q 320 250 232 335 q 544 165 408 165 l 810 165 q 1035 250 947 165 q 1124 471 1124 335 m 728 1013 l 614 1013 l 464 1103 l 615 1103 l 728 1013 z "},"ó":{"ha":1335,"x_min":67,"x_max":1288,"o":"m 1288 485 q 1153 138 1288 275 q 810 0 1018 0 l 544 0 q 202 138 338 0 q 67 485 67 275 q 201 821 67 693 q 544 949 335 949 l 810 949 q 1154 821 1021 949 q 1288 485 1288 693 m 1124 471 q 1035 696 1124 608 q 810 783 947 783 l 544 783 q 320 696 408 783 q 232 471 232 608 q 320 250 232 335 q 544 165 408 165 l 810 165 q 1035 250 947 165 q 1124 471 1124 335 m 821 1103 l 669 1013 l 556 1013 l 669 1103 l 821 1103 z "},"ô":{"ha":1335,"x_min":67,"x_max":1288,"o":"m 1288 485 q 1153 138 1288 275 q 810 0 1018 0 l 544 0 q 202 138 338 0 q 67 485 67 275 q 201 821 67 693 q 544 949 335 949 l 810 949 q 1154 821 1021 949 q 1288 485 1288 693 m 1124 471 q 1035 696 1124 608 q 810 783 947 783 l 544 783 q 320 696 408 783 q 232 471 232 608 q 320 250 232 335 q 544 165 408 165 l 810 165 q 1035 250 947 165 q 1124 471 1124 335 m 867 1015 l 750 1015 l 674 1069 l 601 1015 l 485 1015 l 585 1101 l 765 1101 l 867 1015 z "},"õ":{"ha":1335,"x_min":67,"x_max":1288,"o":"m 1288 485 q 1153 138 1288 275 q 810 0 1018 0 l 544 0 q 202 138 338 0 q 67 485 67 275 q 201 821 67 693 q 544 949 335 949 l 810 949 q 1154 821 1021 949 q 1288 485 1288 693 m 1124 471 q 1035 696 1124 608 q 810 783 947 783 l 544 783 q 320 696 408 783 q 232 471 232 608 q 320 250 232 335 q 544 165 408 165 l 810 165 q 1035 250 947 165 q 1124 471 1124 335 m 853 1104 q 810 1038 853 1060 q 726 1019 775 1019 q 612 1042 683 1019 q 513 1065 540 1065 q 450 1021 468 1065 l 429 1021 q 554 1104 433 1104 q 667 1082 596 1104 q 769 1060 738 1060 q 832 1104 817 1060 l 853 1104 z "},"ö":{"ha":1335,"x_min":67,"x_max":1288,"o":"m 1288 485 q 1153 138 1288 275 q 810 0 1018 0 l 544 0 q 202 138 338 0 q 67 485 67 275 q 201 821 67 693 q 544 949 335 949 l 810 949 q 1154 821 1021 949 q 1288 485 1288 693 m 1124 471 q 1035 696 1124 608 q 810 783 947 783 l 544 783 q 320 696 408 783 q 232 471 232 608 q 320 250 232 335 q 544 165 408 165 l 810 165 q 1035 250 947 165 q 1124 471 1124 335 m 871 1053 q 849 1008 871 1025 q 799 992 826 992 q 747 1008 769 992 q 725 1053 725 1025 q 748 1097 725 1079 q 799 1114 771 1114 q 849 1097 826 1114 q 871 1053 871 1079 m 635 1053 q 613 1008 635 1025 q 563 992 590 992 q 512 1008 535 992 q 489 1053 489 1025 q 511 1097 489 1081 q 563 1114 533 1114 q 613 1097 590 1114 q 635 1053 635 1079 z "},"ù":{"ha":1265,"x_min":106,"x_max":1154,"o":"m 1154 426 q 1017 92 1154 197 q 658 0 896 0 l 601 0 q 243 92 364 0 q 106 426 106 197 l 106 949 l 271 949 l 271 426 q 389 200 271 256 q 658 165 465 165 q 894 214 819 165 q 989 426 989 275 l 989 949 l 1154 949 l 1154 426 m 728 1013 l 614 1013 l 464 1103 l 615 1103 l 728 1013 z "},"ú":{"ha":1265,"x_min":106,"x_max":1154,"o":"m 1154 426 q 1017 92 1154 197 q 658 0 896 0 l 601 0 q 243 92 364 0 q 106 426 106 197 l 106 949 l 271 949 l 271 426 q 389 200 271 256 q 658 165 465 165 q 894 214 819 165 q 989 426 989 275 l 989 949 l 1154 949 l 1154 426 m 779 1103 l 628 1013 l 514 1013 l 628 1103 l 779 1103 z "},"û":{"ha":1265,"x_min":106,"x_max":1154,"o":"m 1154 426 q 1017 92 1154 197 q 658 0 896 0 l 601 0 q 243 92 364 0 q 106 426 106 197 l 106 949 l 271 949 l 271 426 q 389 200 271 256 q 658 165 465 165 q 894 214 819 165 q 989 426 989 275 l 989 949 l 1154 949 l 1154 426 m 811 1015 l 694 1015 l 618 1069 l 546 1015 l 429 1015 l 529 1101 l 710 1101 l 811 1015 z "},"ü":{"ha":1265,"x_min":106,"x_max":1154,"o":"m 1154 426 q 1017 92 1154 197 q 658 0 896 0 l 601 0 q 243 92 364 0 q 106 426 106 197 l 106 949 l 271 949 l 271 426 q 389 200 271 256 q 658 165 465 165 q 894 214 819 165 q 989 426 989 275 l 989 949 l 1154 949 l 1154 426 m 829 1053 q 807 1008 829 1025 q 757 992 785 992 q 706 1008 728 992 q 683 1053 683 1025 q 706 1097 683 1079 q 757 1114 729 1114 q 807 1097 785 1114 q 829 1053 829 1079 m 593 1053 q 571 1008 593 1025 q 521 992 549 992 q 470 1008 493 992 q 447 1053 447 1025 q 469 1097 447 1081 q 521 1114 492 1114 q 571 1097 549 1114 q 593 1053 593 1079 z "},"ˆ":{"ha":818,"x_min":415,"x_max":797,"o":"m 797 1015 l 681 1015 l 604 1069 l 532 1015 l 415 1015 l 515 1101 l 696 1101 l 797 1015 z "},"˚":{"ha":793,"x_min":481,"x_max":740,"o":"m 740 1057 q 692 1000 740 1021 q 611 985 653 985 q 531 1001 568 985 q 481 1057 481 1021 q 531 1114 481 1094 q 611 1129 568 1129 q 692 1114 653 1129 q 740 1057 740 1093 m 693 1057 q 661 1093 693 1081 q 611 1103 638 1103 q 560 1093 583 1103 q 528 1057 528 1081 q 560 1021 528 1033 q 611 1011 583 1011 q 661 1021 638 1011 q 693 1057 693 1035 z "},"˜":{"ha":774,"x_min":388,"x_max":811,"o":"m 811 1104 q 768 1038 811 1060 q 685 1019 733 1019 q 570 1042 642 1019 q 471 1065 499 1065 q 408 1021 426 1065 l 388 1021 q 513 1104 392 1104 q 625 1082 554 1104 q 728 1060 696 1060 q 790 1104 775 1060 l 811 1104 z "},"–":{"ha":418,"x_min":54,"x_max":371,"o":"m 371 397 l 54 397 l 54 560 l 371 560 l 371 397 z "},"—":{"ha":626,"x_min":60,"x_max":575,"o":"m 575 397 l 60 397 l 60 561 l 575 561 l 575 397 z "},"‘":{"ha":438,"x_min":22,"x_max":188,"o":"m 188 1096 l 188 806 l 75 806 l 22 1096 l 188 1096 z "},"’":{"ha":222,"x_min":19,"x_max":183,"o":"m 183 1096 l 131 806 l 19 806 l 19 1096 l 183 1096 z "},"“":{"ha":439,"x_min":22,"x_max":382,"o":"m 188 1096 l 188 806 l 75 806 l 22 1096 l 188 1096 m 382 1096 l 382 806 l 269 806 l 217 1096 l 382 1096 z "},"”":{"ha":422,"x_min":33,"x_max":390,"o":"m 197 1096 l 144 806 l 33 806 l 33 1096 l 197 1096 m 390 1096 l 338 806 l 226 806 l 226 1096 l 390 1096 z "},"•":{"ha":665,"x_min":43,"x_max":633,"o":"m 633 619 l 474 478 l 526 271 l 342 379 l 161 265 l 207 474 l 43 610 l 256 631 l 333 829 l 419 633 l 633 619 z "},"…":{"ha":2043,"x_min":83,"x_max":1908,"o":"m 253 81 q 229 19 253 43 q 168 -4 206 -4 q 108 19 132 -4 q 83 81 83 43 q 108 140 83 117 q 168 164 132 164 q 229 140 206 164 q 253 81 253 117 m 1081 81 q 1057 19 1081 43 q 996 -4 1033 -4 q 935 19 960 -4 q 911 81 911 43 q 935 140 911 117 q 996 164 960 164 q 1057 140 1033 164 q 1081 81 1081 117 m 1908 81 q 1885 19 1908 43 q 1824 -4 1861 -4 q 1763 19 1788 -4 q 1739 81 1739 43 q 1763 140 1739 117 q 1824 164 1788 164 q 1885 140 1861 164 q 1908 81 1908 117 z "},"Æ":{"ha":2010,"x_min":32,"x_max":1917,"o":"m 1308 0 l 1096 1 l 936 267 l 486 267 l 586 431 l 838 431 l 672 704 l 244 1 l 32 1 l 547 858 q 601 919 567 892 q 676 951 643 951 q 751 921 713 951 q 806 858 785 894 l 1308 0 m 1874 399 l 1332 399 l 1332 564 l 1874 564 l 1874 399 m 1917 0 l 1097 0 l 1097 949 l 1917 949 l 1917 783 l 1263 783 l 1263 165 l 1917 165 l 1917 0 z "},"Œ":{"ha":2035,"x_min":67,"x_max":1950,"o":"m 1288 485 q 1153 138 1288 275 q 810 0 1018 0 l 544 0 q 202 138 338 0 q 67 485 67 275 q 201 821 67 693 q 544 949 335 949 l 810 949 q 1154 821 1021 949 q 1288 485 1288 693 m 1124 471 q 1035 696 1124 608 q 810 783 947 783 l 544 783 q 320 696 408 783 q 232 471 232 608 q 320 250 232 335 q 544 165 408 165 l 810 165 q 1035 250 947 165 q 1124 471 1124 335 m 1907 399 l 1365 399 l 1365 564 l 1907 564 l 1907 399 m 1950 0 l 1131 0 l 1131 949 l 1950 949 l 1950 783 l 1296 783 l 1296 165 l 1950 165 l 1950 0 z "},"œ":{"ha":2035,"x_min":67,"x_max":1950,"o":"m 1288 485 q 1153 138 1288 275 q 810 0 1018 0 l 544 0 q 202 138 338 0 q 67 485 67 275 q 201 821 67 693 q 544 949 335 949 l 810 949 q 1154 821 1021 949 q 1288 485 1288 693 m 1124 471 q 1035 696 1124 608 q 810 783 947 783 l 544 783 q 320 696 408 783 q 232 471 232 608 q 320 250 232 335 q 544 165 408 165 l 810 165 q 1035 250 947 165 q 1124 471 1124 335 m 1907 399 l 1365 399 l 1365 564 l 1907 564 l 1907 399 m 1950 0 l 1131 0 l 1131 949 l 1950 949 l 1950 783 l 1296 783 l 1296 165 l 1950 165 l 1950 0 z "},"æ":{"ha":2010,"x_min":32,"x_max":1917,"o":"m 1308 0 l 1096 1 l 936 267 l 486 267 l 586 431 l 838 431 l 672 704 l 244 1 l 32 1 l 547 858 q 601 919 567 892 q 676 951 643 951 q 751 921 713 951 q 806 858 785 894 l 1308 0 m 1874 399 l 1332 399 l 1332 564 l 1874 564 l 1874 399 m 1917 0 l 1097 0 l 1097 949 l 1917 949 l 1917 783 l 1263 783 l 1263 165 l 1917 165 l 1917 0 z "},"©":{"ha":882,"x_min":57,"x_max":829,"o":"m 57 385 q 88 535 57 464 q 170 658 118 606 q 293 740 222 710 q 443 771 364 771 q 593 740 522 771 q 716 658 664 710 q 799 535 768 606 q 829 385 829 464 q 799 235 829 306 q 716 112 768 164 q 593 29 664 60 q 443 -1 522 -1 q 293 29 364 -1 q 170 112 222 60 q 88 235 118 164 q 57 385 57 306 m 103 383 q 130 250 103 313 q 203 142 157 188 q 311 69 249 96 q 444 42 374 42 q 578 69 515 42 q 687 142 640 96 q 760 250 733 188 q 788 383 788 313 q 760 517 788 454 q 687 626 733 579 q 578 701 640 674 q 444 728 515 728 q 311 701 374 728 q 203 626 249 674 q 130 517 157 579 q 103 383 103 454 m 525 481 q 438 531 489 531 q 360 490 389 531 q 331 379 331 450 q 362 271 331 313 q 439 229 393 229 q 485 241 463 229 q 525 272 508 253 l 594 225 q 438 139 542 139 q 360 157 396 139 q 299 208 325 175 q 259 284 274 240 q 244 379 244 328 q 258 475 244 431 q 296 552 271 519 q 357 603 321 585 q 438 621 393 621 q 597 528 546 621 l 525 481 z "},"®":{"ha":750,"x_min":65,"x_max":693,"o":"m 375 728 q 270 707 317 728 q 191 653 224 686 q 141 576 158 619 q 124 490 124 533 q 141 403 124 446 q 191 326 158 360 q 270 272 224 293 q 375 251 317 251 q 478 269 429 251 q 564 320 528 288 q 622 397 600 353 q 643 490 643 440 q 623 576 643 533 q 567 653 603 619 q 483 707 532 686 q 375 728 433 728 m 376 197 q 251 222 308 197 q 153 286 194 246 q 88 379 111 326 q 65 490 65 432 q 88 603 65 550 q 153 697 111 657 q 251 761 194 738 q 376 785 308 785 q 503 762 444 785 q 603 699 561 739 q 669 606 646 660 q 693 490 693 553 q 669 379 693 432 q 602 286 644 326 q 501 222 560 246 q 376 197 443 197 m 342 581 l 342 508 l 394 508 q 428 543 428 508 q 394 581 428 581 l 342 581 m 375 443 l 342 443 l 342 326 l 279 326 l 279 644 l 393 644 q 465 618 438 644 q 492 543 492 592 q 479 491 492 511 q 439 453 467 471 l 496 326 l 429 326 l 375 443 z "},"‹":{"ha":319,"x_min":57,"x_max":274,"o":"m 132 419 l 274 353 l 274 269 l 57 376 l 57 458 l 274 571 l 274 485 l 132 419 z "},"™":{"ha":779,"x_min":60,"x_max":700,"o":"m 240 672 l 240 363 l 158 363 l 158 672 l 60 672 l 60 747 l 336 747 l 336 672 l 240 672 m 622 575 l 539 361 l 447 583 l 447 364 l 371 364 l 371 749 l 464 749 l 538 550 l 610 749 l 700 749 l 700 364 l 622 364 l 622 575 z "},"›":{"ha":319,"x_min":57,"x_max":274,"o":"m 199 422 l 57 488 l 57 571 l 274 464 l 274 382 l 57 269 l 57 356 l 199 422 z "},"«":{"ha":519,"x_min":57,"x_max":479,"o":"m 132 419 l 274 353 l 274 269 l 57 376 l 57 458 l 274 571 l 274 485 l 132 419 m 338 419 l 479 353 l 479 269 l 263 376 l 263 458 l 479 571 l 479 485 l 338 419 z "},"»":{"ha":536,"x_min":72,"x_max":494,"o":"m 419 422 l 278 488 l 278 571 l 494 464 l 494 382 l 278 269 l 278 356 l 419 422 m 214 422 l 72 488 l 72 571 l 289 464 l 289 382 l 72 269 l 72 356 l 214 422 z "},"„":{"ha":422,"x_min":33,"x_max":390,"o":"m 197 146 l 144 -144 l 33 -144 l 33 146 l 197 146 m 390 146 l 338 -144 l 226 -144 l 226 146 l 390 146 z "},"‚":{"ha":222,"x_min":19,"x_max":183,"o":"m 183 150 l 131 -140 l 19 -140 l 19 150 l 183 150 z "},"~":{"ha":1964,"x_min":86,"x_max":1878,"o":"m 86 407 l 88 407 l 88 472 l 181 472 l 181 511 l 156 511 l 156 633 l 181 633 l 181 676 l 156 676 l 156 728 l 765 728 l 765 664 q 732 682 756 682 q 668 575 668 682 q 735 469 668 469 q 778 496 756 469 l 778 472 l 811 472 l 811 728 l 1331 728 l 1331 692 l 1378 692 l 1378 728 l 1878 728 l 1878 0 l 86 0 l 86 407 m 1303 472 l 1303 603 q 1238 678 1303 678 q 1194 644 1204 678 q 1156 678 1182 678 q 1118 644 1132 678 l 1118 676 l 1074 676 l 1074 511 l 1047 511 l 1047 472 l 1144 472 l 1144 511 l 1118 511 l 1118 596 q 1144 628 1118 628 q 1165 596 1165 628 l 1165 472 l 1236 472 l 1236 511 l 1210 511 l 1210 596 q 1236 626 1210 626 q 1257 596 1257 626 l 1257 472 l 1303 472 m 1369 371 l 1292 371 l 1292 108 l 1336 108 l 1336 278 l 1340 278 l 1353 108 l 1433 108 l 1433 371 l 1389 371 l 1389 201 l 1385 201 l 1369 371 m 667 371 l 667 108 l 776 108 l 792 138 l 792 224 l 781 243 l 781 247 l 792 267 l 792 343 l 776 371 l 667 371 m 1147 343 l 1147 138 l 1161 108 l 1254 108 l 1271 138 l 1271 343 l 1256 371 l 1161 371 l 1147 343 m 376 371 l 376 108 l 429 108 l 429 224 l 444 224 l 444 108 l 501 108 l 501 214 l 481 243 l 481 247 l 501 275 l 501 343 l 486 371 l 376 371 m 356 407 l 401 407 l 401 485 q 435 468 411 468 q 499 574 499 468 q 432 679 499 679 q 389 651 413 679 l 389 676 l 356 676 l 356 407 m 660 572 q 583 681 660 681 q 508 572 508 681 q 583 467 508 467 q 660 572 660 467 m 1644 290 l 1697 290 l 1697 343 l 1683 371 l 1592 371 l 1576 343 l 1576 251 l 1593 224 l 1644 211 l 1644 158 l 1631 158 l 1631 197 l 1576 197 l 1576 138 l 1592 108 l 1682 108 l 1697 138 l 1697 238 l 1679 267 l 1631 278 l 1631 324 l 1644 324 l 1644 290 m 356 108 l 356 204 l 319 371 l 263 371 l 231 204 l 231 108 l 282 108 l 282 158 l 300 158 l 300 108 l 356 108 m 644 108 l 644 204 l 611 371 l 554 371 l 522 204 l 522 108 l 575 108 l 575 158 l 592 158 l 592 108 l 644 108 m 235 407 l 264 407 q 340 506 340 415 l 340 676 l 294 676 l 294 550 q 267 514 294 514 q 240 550 240 514 l 240 676 l 196 676 l 196 558 q 260 469 196 469 q 294 481 279 469 q 256 449 294 449 l 235 449 l 235 407 m 942 221 l 978 221 l 978 267 l 942 267 l 942 315 l 978 315 l 978 371 l 889 371 l 889 108 l 978 108 l 978 167 l 942 167 l 942 221 m 1092 217 l 1125 217 l 1125 263 l 1092 263 l 1092 315 l 1125 315 l 1125 371 l 1038 371 l 1038 108 l 1092 108 l 1092 217 m 1478 315 l 1478 108 l 1532 108 l 1532 315 l 1561 315 l 1561 371 l 1449 371 l 1449 315 l 1478 315 m 951 676 l 931 676 l 931 644 q 885 681 915 681 q 825 621 825 681 q 856 571 825 583 q 824 525 824 558 q 886 467 825 467 q 934 485 917 467 q 951 540 951 503 l 931 540 q 896 514 926 514 q 868 533 868 514 q 896 558 868 558 l 910 558 l 910 583 l 896 583 q 868 607 868 583 q 896 629 868 629 q 931 601 919 629 l 951 601 l 951 676 m 1522 674 l 1500 674 l 1500 644 q 1458 681 1483 681 q 1389 572 1389 681 q 1460 468 1389 468 q 1522 549 1510 468 l 1500 549 q 1465 517 1496 517 q 1433 572 1433 517 q 1465 629 1433 629 q 1500 592 1497 629 l 1522 592 l 1522 674 m 210 167 l 179 167 l 179 371 l 126 371 l 126 108 l 210 108 l 210 167 m 868 108 l 868 371 l 814 371 l 814 108 l 868 108 m 1028 511 l 1008 511 l 1008 601 q 1028 629 1008 629 q 1044 621 1036 629 l 1060 667 q 1036 678 1049 676 q 993 644 1007 678 l 993 676 l 967 676 l 967 472 l 1028 472 l 1028 511 m 1310 676 l 1310 633 l 1331 633 l 1331 472 l 1378 472 l 1378 676 l 1310 676 m 397 607 q 426 628 406 628 q 456 575 456 628 q 425 515 456 515 q 397 538 406 515 l 397 607 m 614 572 q 583 517 614 517 q 554 572 554 517 q 583 629 554 629 q 614 572 614 629 m 768 540 q 740 521 760 521 q 711 574 711 521 q 742 633 711 633 q 768 611 760 633 l 768 540 m 88 511 l 88 633 l 114 633 l 114 511 l 88 511 m 1200 158 l 1200 324 l 1215 324 l 1215 158 l 1200 158 m 88 676 l 88 728 l 114 728 l 114 676 l 88 676 m 282 197 l 282 224 l 290 293 l 293 293 l 300 224 l 300 197 l 282 197 m 575 197 l 575 224 l 582 293 l 586 293 l 592 224 l 592 197 l 575 197 m 721 224 l 736 224 l 736 158 l 721 158 l 721 224 m 721 267 l 721 324 l 736 324 l 736 267 l 721 267 m 429 267 l 429 324 l 444 324 l 444 267 l 429 267 z "}," ":{"ha":440,"x_min":0,"x_max":0,"o":""}}}
